<svg xmlns="http://www.w3.org/2000/svg" viewBox="0 0 256 256" role="img" aria-label="Centro de Neurología">
  <defs>
    <linearGradient id="g" x1="0" y1="0" x2="1" y2="0">
      <stop offset="0" stop-color="#20A9A8"/>
      <stop offset="1" stop-color="#182A50"/>
    </linearGradient>
  </defs>
  <g fill="none" stroke="url(#g)" stroke-width="10" stroke-linecap="round" stroke-linejoin="round" opacity="0.95">
    <path d="M60 126c-10-22 2-48 24-60 14-8 32-8 46 0 10-14 28-22 46-18 26 6 42 34 32 58 20 14 24 44 8 62-16 18-44 20-62 6-12 16-34 24-54 18-18-6-30-22-30-40-6 2-12 2-18 0-18-6-28-26-22-44z"/>
  </g>
  <g fill="#0B1020" opacity="0.9">
    <circle cx="74" cy="110" r="7"/><circle cx="108" cy="88" r="6"/><circle cx="140" cy="94" r="7"/>
    <circle cx="176" cy="102" r="6"/><circle cx="198" cy="130" r="7"/><circle cx="168" cy="156" r="6"/>
    <circle cx="132" cy="166" r="7"/><circle cx="98" cy="150" r="6"/><circle cx="70" cy="138" r="6"/>
  </g>
  <g fill="none" stroke="url(#g)" stroke-width="6" stroke-linecap="round" opacity="0.9">
    <line x1="74" y1="110" x2="108" y2="88"/>
    <line x1="108" y1="88" x2="140" y2="94"/>
    <line x1="140" y1="94" x2="176" y2="102"/>
    <line x1="176" y1="102" x2="198" y2="130"/>
    <line x1="198" y1="130" x2="168" y2="156"/>
    <line x1="168" y1="156" x2="132" y2="166"/>
    <line x1="132" y1="166" x2="98" y2="150"/>
    <line x1="98" y1="150" x2="70" y2="138"/>
    <line x1="70" y1="138" x2="74" y2="110"/>
    <line x1="108" y1="88" x2="98" y2="150"/>
    <line x1="140" y1="94" x2="132" y2="166"/>
    <line x1="176" y1="102" x2="168" y2="156"/>
  </g>
</svg>
