<svg xmlns="http://www.w3.org/2000/svg" viewBox="0 0 256 256">
<defs><linearGradient id="g" x1="0" y1="0" x2="1" y2="1">
<stop offset="0" stop-color="#20A9A8"/><stop offset="1" stop-color="#182A50"/>
</linearGradient></defs>
<g fill="none" stroke="url(#g)" stroke-width="10" stroke-linecap="round">
<path d="M60 130c-10-24 6-52 32-62 20-8 44-2 56 14 14-16 40-20 60-8 26 16 28 52 6 72 18 16 18 46-2 62-22 18-54 12-66-8-14 14-40 18-58 6-20-14-26-40-14-60-12 2-26-6-30-16z"/>
<circle cx="96" cy="110" r="6"/><circle cx="128" cy="98" r="6"/><circle cx="160" cy="110" r="6"/>
<line x1="96" y1="110" x2="128" y2="98"/>
<line x1="128" y1="98" x2="160" y2="110"/>
</g></svg>